                                    =!HD DESI ROCKER RELEASES!=












 

Release Title:  Tarzan 1999 720p HDTVRip[Dual-Audio][Eng-Hindi]~BONIIN
Release Date:   18 June 1999 (USA) 
Release Length: 1h 22mn


Tagline: An immortal legend. As you've only imagined. 
  
Storyline:The movie is about the life of Tarzan. Tarzan was a small orphan who was raised by an ape 
named Kala since he was a child. He believed that this was his family, but on an expedition Jane Porter 
is rescued by Tarzan. He then finds out that he's human. Now Tarzan must make the decision as to which 
family he should belong 
 






Cast:

 
  Tony Goldwyn  ...  Tarzan (voice)
  
  Minnie Driver  ...  Jane Porter (voice)
  
  Glenn Close  ...  Kala (voice)
  
  Brian Blessed  ...  Mr. Clayton, the Gorilla Hunter (voice)
  
  Nigel Hawthorne  ...  Professor Archimedes Q. Porter (voice)
  
  Lance Henriksen  ...  Kerchak, the Gorilla King (voice)
  
  Wayne Knight  ...  Adult Tantor (voice)
  
  Alex D. Linz  ...  Young Tarzan (voice)
  
  Rosie O'Donnell  ...  Young Terk / Adult Terk (voice)
  
  Taylor Dempsey  ...  Young Tantor (voice)
  
  Jason Marsden  ...  Additional Voices (voice 

  Beth Anderson  ...  Additional Voices (voice)
   
  Jack Angel  ...  Additional Voices (voice)
  
  Joseph Ashton  ...  Ape Boy (voice)
  
  Bob Bergen  ...  Additional Voices (voice 




 





General INFO:
 
Title............................: Tarzan 1999 720p HDTVHDTVRip[Dual-Audio][Eng-Hindi]~BONIIN 
Genre............................: Action | Animation | Adventure | Drama | Family 
Directer.........................: Chris Buck, Kevin Lima
Writer...........................: Edgar Rice Burroughs (story), Tab Murphy 
IMDB.............................: http://www.imdb.com/title/tt0120855/
year.............................: 18 June 1999 (USA)   
User Rating......................: 7.0/10 (27,378 votes)   
VIDEO Source.....................: Tarzan 1999 1080p HDTVHDTVRip x264-abc                                                   
File size........................: 2.32 GiB
Run time.........................: 1h 22mn
Languages........................: English.Hindi
Subtittle........................: English
Ripper...........................: BONIIN[BOW]





Video
ID                               : 2
Format                           : AVC-Mkv
Format/Info                      : H264-Advanced Video Codec
Format profile                   : High@L5.1
Format settings, CABAC           : Yes
Format settings, ReFrames        : 8 frames
Muxing mode                      : Container profile=Unknown@5.1
Codec ID                         : V_MPEG4/ISO/AVC
Duration                         : 1h 22mn
Bit rate                         : 3 346 Kbps
Nominal bit rate                 : 3 428 Kbps
Overall bit rate                 : 4 035 Kbps
Width                            : 1 280 pixels
Height                           : 720 pixels
Display aspect ratio             : 16:9
Frame rate                       : 23.976 fps
Resolution                       : 8 bits
Colorimetry                      : 4:2:0
Scan type                        : Progressive
Bits/(Pixel*Frame)               : 0.151
Stream size                      : 1.92 GiB (83%)
Title                            : RIPPER-BONIIN
Writing library                  : x264 core 57 svn-709C
Encoding settings                : cabac=1 / ref=5 / deblock=1:0:0 
Language                         : English
Encoded date                     : UTC 2010-11-18 14:29:02
Writing application              : mkvmerge v3.3.0 ('Language') built on Mar 24 2010 14:59:24
Writing library                  : libebml v0.8.0 + libmatroska v0.9.0






Audio #1
ID                               : 1
Format                           : AC-3
Format/Info                      : Audio Coding 3
Codec ID                         : A_AC3
Duration                         : 1h 22mn
Bit rate mode                    : Constant
Bit rate                         : 384 Kbps
Channel(s)                       : 6 channels
Channel positions                : Front: L C R, Side: L R, LFE
Sampling rate                    : 48.0 KHz
Stream size                      : 226 MiB (10%)
Title                            : RIPPER-BONIIN
Language                         : English

Audio #2
ID                               : 3
Format                           : AC-3
Format/Info                      : Audio Coding 3
Codec ID                         : A_AC3
Duration                         : 1h 22mn
Bit rate mode                    : Constant
Bit rate                         : 224 Kbps
Channel(s)                       : 2 channels
Channel positions                : Front: L R
Sampling rate                    : 48.0 KHz
Video delay                      : 10ms
Stream size                      : 132 MiB (6%)
Title                            : RIPPER-BONIIN
Language                         : Hindi







SCREENSHOTS 
http://img530.imageshack.us/img530/3206/vlcsnap2010112011h37m38.png 
http://img404.imageshack.us/img404/8292/vlcsnap2010112011h40m15.png 
http://img100.imageshack.us/img100/4926/vlcsnap2010112011h40m27.png 
http://img843.imageshack.us/img843/9706/vlcsnap2010112011h41m00.png 
http://img522.imageshack.us/img522/4336/vlcsnap2010112011h43m25.png 
http://img703.imageshack.us/img703/544/vlcsnap2010112011h44m31.png 
http://img522.imageshack.us/img522/9892/vlcsnap2010112011h44m40.png 
http://img403.imageshack.us/img403/7367/vlcsnap2010112011h45m34.png 
http://img717.imageshack.us/img717/5158/vlcsnap2010112011h46m08.png 
http://img201.imageshack.us/img201/9115/vlcsnap2010112011h46m17.png 
http://img130.imageshack.us/img130/9855/vlcsnap2010112011h46m25.png 
http://img840.imageshack.us/img840/5117/vlcsnap2010112011h46m32.png 
http://img221.imageshack.us/img221/378/vlcsnap2010112011h48m41.png 
http://img811.imageshack.us/img811/4059/vlcsnap2010112011h49m31.png 
http://img202.imageshack.us/img202/3713/vlcsnap2010112011h49m38.png 
http://img23.imageshack.us/img23/2213/vlcsnap2010112011h50m21.png